<svg width="110" height="61" viewBox="0 0 110 61" fill="none" xmlns="http://www.w3.org/2000/svg">
<path d="M109.936 54.9315C109.28 51.1869 107.281 48.4816 103.729 46.9838C102.105 46.3004 100.449 45.6853 98.834 44.9819C97.1125 44.2302 96.1386 42.9003 95.7978 41.0437C95.1447 37.4728 95.6345 34.0073 96.617 30.519C97.4476 31.8915 98.5504 32.8597 100.212 33.2185C99.9368 32.4952 99.4412 31.9542 99.4813 31.0999C100.306 32.0254 101.105 32.7828 102.369 32.8028C102.32 32.4126 101.916 32.2361 101.97 31.8431C102.775 32.0054 103.566 31.8858 104.348 31.6808C106.362 31.154 107.189 29.548 107.837 27.8195C108.475 26.1137 108.04 24.8209 106.556 23.7474C105.201 22.7678 103.675 22.2125 102.025 22.0047C100.541 21.8167 99.6475 22.372 99.1176 23.7189C98.9228 24.2172 98.7653 24.7498 98.1924 25.1057C98.0291 24.5931 98.1666 24.1631 98.327 23.7702C99.0546 21.9933 98.8856 20.2306 98.2468 18.4936C95.6746 11.4856 91.1375 6.22895 84.18 3.23612C78.9669 0.995057 73.4186 0.348651 67.8045 0.120843C62.7833 -0.081337 57.7735 -0.0870239 52.7695 0.556534C49.6703 0.955198 46.5997 1.39088 43.638 2.40462C36.8351 4.73111 30.7598 8.34756 25.0856 12.6902C23.4414 13.9488 21.9004 15.3555 20.0586 16.3408C19.5316 16.6227 18.9931 16.8021 19.3998 17.5596C19.5717 17.8785 18.9243 18.3142 19.3769 18.5078C19.7521 18.6673 20.0214 18.0864 20.4109 17.9497C20.5427 17.9041 20.6372 17.7589 20.7518 17.6592C21.8087 19.1941 21.8517 21.2614 20.8119 22.2239C20.832 21.979 20.8578 21.7769 20.8664 21.5747C20.9007 20.8542 21.044 20.1309 20.9179 19.4133C20.8062 18.7897 20.5026 18.7071 20.0414 19.1001C19.712 19.382 19.4342 19.7351 18.89 19.9373C19.3368 18.8581 19.059 17.8785 18.7582 16.9245C18.1939 15.1277 16.335 13.6128 14.7481 13.5843C13.2185 13.5558 11.4828 14.8686 10.9271 16.543C10.5003 17.8301 10.4888 19.1229 11.1476 20.3701C11.225 20.5154 11.5715 20.7717 11.1247 20.8998C9.70113 21.3042 8.50096 22.2296 7.05733 22.5998C6.30687 22.7906 5.6137 22.8276 4.88329 22.4973C3.72609 21.9733 2.48296 21.8851 1.22837 21.9676C0.202937 22.036 -0.11787 22.3862 0.0368047 23.4114C0.263088 24.9035 1.11953 25.9884 2.38844 26.7972C2.82668 27.0762 3.16468 27.1019 3.57714 26.7858C4.17866 26.3245 4.80881 25.9002 5.42465 25.4588C5.02937 26.2191 4.54816 26.8826 4.05549 27.5375C3.69172 28.0245 3.46257 28.5541 3.4597 29.1664C3.45398 30.3538 3.4683 31.5413 3.28211 32.7173C3.05583 34.1582 2.94699 35.6361 2.02466 36.8691C1.62079 37.4073 1.21692 37.9455 0.807315 38.478C0.32324 39.1073 -0.0147536 39.7908 0.0568552 40.608C0.0769057 40.8387 0.157108 41.1007 0.383391 41.1946C0.666962 41.3114 0.767214 41.0124 0.919025 40.8558C1.37732 40.3859 1.81843 39.8933 2.57748 39.6427C2.35979 40.3147 2.17361 40.8899 2.01321 41.4737C1.78692 42.3109 2.12778 42.7722 2.83528 43.1367C4.22449 43.8543 5.67671 44.401 7.1805 44.8139C7.73618 44.9677 8.26608 44.9136 8.77594 44.5007C12.0671 41.8467 15.3811 39.2241 18.6866 36.5901C19.1678 36.2085 19.6547 35.8412 20.3279 35.5706C19.7922 36.6072 18.8384 37.1397 18.0994 38.0224C19.7034 37.6608 21.1643 37.7206 22.6451 37.9541C23.3784 38.0708 24.169 38.2132 24.8936 37.9797C27.188 37.245 29.4881 37.1283 31.897 37.3361C34.5121 37.5611 36.3912 38.6802 37.6343 40.8928C40.0289 45.1585 41.4754 49.7944 42.8245 54.4559C43.2484 55.9167 43.2771 57.463 43.4289 58.9779C43.4861 59.5531 43.7697 59.8521 44.3197 59.9945C44.8467 60.1312 45.0386 59.855 45.2477 59.4421C45.7977 58.3714 46.2818 58.0154 47.1554 57.9186C46.9978 58.5308 46.8489 59.1487 46.6713 59.7581C46.6226 59.9261 46.5768 60.0344 46.7773 60.1226C47.3015 60.3561 48.3412 60.0144 48.6448 59.4905C48.9198 59.0178 49.2349 58.5906 49.7906 58.3941C49.9882 58.9238 49.8049 59.4107 49.6789 59.9404C50.4179 59.9746 51.0624 60.0571 51.4605 59.2085C51.7469 58.5963 52.2826 58.1037 52.95 57.7705C53.0703 58.5365 52.7495 59.1573 52.4372 59.7952C53.0015 59.7952 53.5142 59.7952 54.027 59.7952C54.7345 59.8008 55.0667 59.3709 55.1555 58.7529C55.2844 57.8332 55.3331 56.9048 55.2815 55.9708C55.1297 53.203 54.342 50.5889 53.3424 48.0289C52.3313 45.4433 52.0563 42.6982 51.4347 39.9502C52.4401 40.0527 53.3395 40.1667 54.2418 40.2265C55.9948 40.3432 57.7334 40.6792 59.5151 40.3318C60.4488 40.1496 61.437 40.161 62.3937 40.2065C65.2867 40.3461 68.1081 40.927 70.9238 41.599C73.5733 42.2312 75.9536 43.5496 78.5458 44.3128C81.4989 45.1813 84.5036 45.8619 87.2849 47.2913C90.6362 49.0113 93.555 51.1612 95.5658 54.3762C96.4766 55.8313 97.2615 57.3462 97.1469 59.1516C97.124 59.5161 97.0323 59.9632 97.6023 60.0657C98.1551 60.1653 98.5705 60.1397 98.8426 59.499C99.1777 58.7102 99.593 57.9328 100.421 57.4431C100.395 58.0126 100.169 58.4853 100.04 58.9807C99.7535 60.0685 99.9482 60.2622 101.074 60.1568C101.463 60.1198 101.569 59.855 101.738 59.5958C102.168 58.9295 102.512 58.1948 103.156 57.6481C103.534 58.6191 102.964 59.3282 102.687 60.2138C103.165 60.2138 103.577 60.1824 103.981 60.2223C104.491 60.2707 104.74 60.1255 104.921 59.593C105.176 58.8441 105.528 58.0923 106.261 57.6053C106.594 58.5508 106.061 59.3168 105.92 60.1739C106.88 60.1397 107.791 60.1312 108.656 59.8094C109 59.6841 109.381 59.5161 109.358 59.0804C109.34 58.7188 109.512 58.4482 109.61 58.1322C109.936 57.0899 110.114 56.0306 109.919 54.9258L109.936 54.9315ZM9.43188 32.5636C8.97931 32.8483 8.52388 33.1302 7.98251 33.4663C8.12573 32.1108 8.458 31.7605 9.26574 31.9456C9.44333 31.9855 9.64097 31.9969 9.68394 32.2133C9.71831 32.3927 9.56077 32.481 9.43188 32.5636Z" fill="#2F653F"/>
<path d="M35.7123 39.9644C34.6868 39.0959 33.4723 38.5776 32.1691 38.3128C30.2414 37.9198 28.3222 38.0366 26.3859 38.4011C25.6928 38.532 25.4865 38.8083 25.3863 39.3977C24.8621 42.5244 23.9684 45.5542 22.456 48.3449C20.6572 51.6652 18.7066 54.9058 16.3435 57.8758C16.0113 58.2916 15.9597 58.7586 15.9712 59.254C15.9769 59.5103 16.0943 59.7353 16.3177 59.815C16.5813 59.909 16.63 59.6043 16.756 59.4648C17.2744 58.8981 17.7127 58.2232 18.6264 58.2346C18.8355 58.9807 18.2426 59.4107 17.8903 60.0115C18.7267 60.0571 19.4342 60.151 19.9669 59.3338C20.3336 58.7699 20.8864 58.2944 21.6397 58.1919C21.6512 58.8924 21.1299 59.3338 20.7747 59.9432C21.7142 60.0428 22.5277 60.2222 23.1063 59.2911C23.4013 58.8127 23.9169 58.5279 24.5184 58.3912C24.4582 58.9664 24.1718 59.4135 23.7565 59.909C24.7132 59.909 25.5438 59.9261 26.3745 59.9033C27.2882 59.8805 27.99 59.5587 28.3996 58.6504C28.898 57.5483 29.4794 56.4805 30.0695 55.4212C32.2951 51.4317 34.6668 47.5191 36.4914 43.3217C37.0413 42.0602 36.7692 40.8557 35.7094 39.9587L35.7123 39.9644Z" fill="#17482F"/>
<path d="M79.1272 50.176C78.815 49.9881 78.5114 49.7944 78.2049 49.5979C76.5264 48.5301 75.6212 46.9753 75.5525 45.0332C75.5267 44.2929 75.2259 44.0508 74.6531 43.8401C72.2556 42.9573 69.755 42.4647 67.2831 41.8667C64.7825 41.263 62.239 40.9811 59.5723 41.1092C60.5519 43.467 61.5659 45.6939 63.6797 47.2487C65.808 48.8148 68.1338 49.9824 70.5972 50.9107C70.9581 51.0474 71.3132 51.1784 71.5911 51.4887C72.8342 52.8812 73.6362 54.4588 73.7823 56.3382C73.8539 57.2494 73.705 58.1407 73.6076 59.0377C73.5675 59.4051 73.5217 59.8123 73.9714 59.949C74.3838 60.0743 74.4497 59.6528 74.6273 59.4222C75.0684 58.8498 75.4121 58.1607 76.2456 58.0183C76.4719 58.8185 75.8217 59.3367 75.6814 59.9974C76.4261 60.1341 77.0047 60.154 77.2253 59.2228C77.3456 58.716 77.7724 58.2888 78.3166 58.0752C78.7606 57.9015 78.941 58.0525 78.9066 58.5195C78.8665 59.0776 78.4369 59.4763 78.2822 59.9831C78.9381 60.1796 79.4136 60.1113 79.6055 59.3709C79.6657 59.1402 79.8834 58.9381 80.0581 58.7501C80.293 58.4967 80.6539 58.2262 80.9289 58.3913C81.2124 58.5593 81.1093 58.9922 80.989 59.3111C80.9088 59.5275 80.8028 59.7325 80.6825 59.9974C82.4985 59.9547 82.5157 59.6073 82.553 58.2803C82.5816 57.2438 82.4355 56.2215 82.3439 55.1963C82.1434 52.978 81.0377 51.3207 79.1301 50.176H79.1272Z" fill="#17482F"/>
</svg>
