<svg width="37" height="38" viewBox="0 0 37 38" fill="none" xmlns="http://www.w3.org/2000/svg">
<g id="person.2">
<path id="Vector" d="M24.5625 18.6593C27.3731 18.6593 29.6495 16.1855 29.6495 13.1426C29.6495 10.1462 27.3847 7.75366 24.5625 7.75366C21.7751 7.75366 19.4755 10.181 19.4755 13.1658C19.4871 16.1971 21.7635 18.6593 24.5625 18.6593ZM11.1017 18.9264C13.5523 18.9264 15.5267 16.7546 15.5267 14.0717C15.5267 11.4586 13.5523 9.3448 11.1017 9.3448C8.67439 9.3448 6.66514 11.4934 6.67676 14.0834C6.67676 16.7662 8.66277 18.9264 11.1017 18.9264ZM24.5625 16.6268C22.9598 16.6268 21.6009 15.117 21.6009 13.1542C21.6009 11.2611 22.9481 9.78613 24.5625 9.78613C26.1885 9.78613 27.5241 11.2379 27.5241 13.1426C27.5241 15.0938 26.1769 16.6268 24.5625 16.6268ZM11.1017 16.9172C9.78934 16.9172 8.67439 15.6629 8.67439 14.0834C8.67439 12.5735 9.77773 11.3424 11.1017 11.3424C12.449 11.3424 13.5407 12.5503 13.5407 14.0717C13.5407 15.6629 12.4257 16.9172 11.1017 16.9172ZM4.71397 29.5998H13.7381C13.0994 29.2282 12.6696 28.3803 12.7509 27.6138H4.60944C4.38878 27.6138 4.29586 27.5093 4.29586 27.3118C4.29586 24.6522 7.40845 22.1203 11.0901 22.1203C12.3909 22.1203 13.6917 22.4455 14.6905 23.003C15.0854 22.4339 15.5732 21.9461 16.2119 21.528C14.737 20.6221 12.9019 20.1343 11.0901 20.1343C6.17735 20.1343 2.20532 23.6418 2.20532 27.4977C2.20532 28.8914 3.04154 29.5998 4.71397 29.5998ZM17.3269 29.5998H31.7981C33.8073 29.5998 34.7829 28.961 34.7829 27.5906C34.7829 24.3967 30.7877 20.1459 24.5625 20.1459C18.3373 20.1459 14.3421 24.3967 14.3421 27.5906C14.3421 28.961 15.3177 29.5998 17.3269 29.5998ZM16.9553 27.5673C16.6881 27.5673 16.5836 27.4744 16.5836 27.2654C16.5836 25.4884 19.4523 22.1784 24.5625 22.1784C29.6727 22.1784 32.5414 25.4884 32.5414 27.2654C32.5414 27.4744 32.4369 27.5673 32.1581 27.5673H16.9553Z" fill="#F6FCF0"/>
</g>
</svg>
