<svg width="37" height="38" viewBox="0 0 37 38" fill="none" xmlns="http://www.w3.org/2000/svg">
<g id="person.2.fill">
<path id="Vector" d="M24.5743 18.4387C27.1177 18.4387 29.2664 16.1855 29.2664 13.2704C29.2664 10.4249 27.1061 8.24146 24.5743 8.24146C22.054 8.24146 19.8822 10.4598 19.8938 13.2936C19.8938 16.1855 22.0308 18.4387 24.5743 18.4387ZM11.1483 18.7058C13.3666 18.7058 15.2365 16.7314 15.2365 14.1995C15.2365 11.7141 13.3434 9.82098 11.1483 9.82098C8.95326 9.82098 7.06016 11.7489 7.07178 14.2227C7.07178 16.7314 8.94165 18.7058 11.1483 18.7058ZM4.74895 29.2514H13.4595C12.2168 27.4744 13.5525 23.967 16.1772 21.8997C14.8997 21.0751 13.2389 20.4711 11.1483 20.4711C5.95682 20.4711 2.60034 24.2922 2.60034 27.4396C2.60034 28.5894 3.18105 29.2514 4.74895 29.2514ZM17.3387 29.2398H31.8099C33.7262 29.2398 34.3882 28.6591 34.3882 27.5906C34.3882 24.6057 30.5904 20.4943 24.5743 20.4943C18.5465 20.4943 14.7603 24.6057 14.7603 27.5906C14.7603 28.6591 15.4223 29.2398 17.3387 29.2398Z" fill="#F6FCF0"/>
</g>
</svg>
