<svg width="145" height="64" viewBox="0 0 145 64" fill="none" xmlns="http://www.w3.org/2000/svg">
<g id="Group 33503">
<g id="Group 33504">
<g id="Group 51">
<g id="hikeway">
<path id="Vector" d="M131.572 63.5704V58.1954L134.543 58.2345C135.064 58.2345 135.566 58.1498 136.048 57.9804C136.53 57.811 136.973 57.5764 137.377 57.2767C137.794 56.977 138.159 56.6187 138.472 56.2017C138.785 55.7978 139.039 55.3547 139.234 54.8726C138.648 55.1202 138.048 55.3678 137.436 55.6154C136.837 55.8629 136.231 55.9867 135.618 55.9867C134.328 55.9867 133.116 55.7587 131.983 55.3026C130.849 54.8466 129.852 54.2016 128.992 53.3676C128.145 52.5206 127.474 51.4977 126.979 50.299C126.497 49.0871 126.256 47.732 126.256 46.2335V34.6625H131.572V46.2335C131.572 46.9762 131.677 47.6277 131.885 48.188C132.107 48.7353 132.4 49.1979 132.765 49.5758C133.129 49.9406 133.553 50.2143 134.035 50.3967C134.53 50.5791 135.058 50.6703 135.618 50.6703C136.165 50.6703 136.68 50.5465 137.162 50.299C137.657 50.0383 138.087 49.6996 138.452 49.2826C138.817 48.8656 139.104 48.3965 139.312 47.8753C139.521 47.3411 139.625 46.7938 139.625 46.2335V34.6625H145V52.9572C144.987 54.4296 144.7 55.8108 144.14 57.1008C143.58 58.3908 142.811 59.518 141.834 60.4822C140.869 61.4465 139.742 62.2087 138.452 62.769C137.162 63.3293 135.781 63.6095 134.309 63.6095L131.572 63.5704Z" fill="#053218"/>
<path id="Vector_2" d="M122.785 55.5958H121.495L119.423 52.7226C118.915 53.1786 118.374 53.6086 117.801 54.0126C117.24 54.4035 116.647 54.7488 116.022 55.0485C115.397 55.3352 114.751 55.5632 114.087 55.7326C113.435 55.902 112.771 55.9867 112.093 55.9867C110.621 55.9867 109.233 55.7391 107.93 55.244C106.64 54.7488 105.506 54.0321 104.529 53.0939C103.565 52.1427 102.803 50.983 102.242 49.6148C101.682 48.2466 101.402 46.6895 101.402 44.9434C101.402 43.3146 101.682 41.8227 102.242 40.4675C102.803 39.0993 103.565 37.9266 104.529 36.9493C105.506 35.972 106.64 35.2162 107.93 34.682C109.233 34.1347 110.621 33.8611 112.093 33.8611C112.771 33.8611 113.442 33.9458 114.106 34.1152C114.771 34.2846 115.416 34.5191 116.042 34.8188C116.667 35.1185 117.26 35.4703 117.82 35.8743C118.393 36.2782 118.928 36.7147 119.423 37.1838L121.495 34.7015H122.785V55.5958ZM117.41 44.9434C117.41 44.2137 117.266 43.5101 116.98 42.8325C116.706 42.1419 116.328 41.536 115.846 41.0148C115.364 40.4805 114.797 40.057 114.146 39.7443C113.507 39.4185 112.823 39.2557 112.093 39.2557C111.364 39.2557 110.673 39.3795 110.021 39.627C109.383 39.8746 108.823 40.2395 108.341 40.7216C107.871 41.2037 107.5 41.8031 107.226 42.5198C106.953 43.2234 106.816 44.0313 106.816 44.9434C106.816 45.8556 106.953 46.67 107.226 47.3866C107.5 48.0903 107.871 48.6832 108.341 49.1653C108.823 49.6474 109.383 50.0123 110.021 50.2598C110.673 50.5074 111.364 50.6312 112.093 50.6312C112.823 50.6312 113.507 50.4748 114.146 50.1621C114.797 49.8363 115.364 49.4129 115.846 48.8916C116.328 48.3574 116.706 47.7515 116.98 47.0739C117.266 46.3833 117.41 45.6731 117.41 44.9434Z" fill="#053218"/>
<path id="Vector_3" d="M98.9858 48.0316C98.9858 49.1262 98.7774 50.1621 98.3604 51.1394C97.9434 52.1036 97.3701 52.9441 96.6404 53.6608C95.9237 54.3774 95.0767 54.9443 94.0994 55.3612C93.1352 55.7782 92.0993 55.9867 90.9917 55.9867C90.0014 55.9867 89.0502 55.8173 88.138 55.4785C87.2259 55.1267 86.3985 54.6185 85.6557 53.9539C84.926 54.6185 84.1051 55.1267 83.193 55.4785C82.2939 55.8173 81.3427 55.9867 80.3393 55.9867C79.2318 55.9867 78.1958 55.7782 77.2316 55.3612C76.2673 54.9443 75.4204 54.3774 74.6907 53.6608C73.974 52.9441 73.4072 52.1036 72.9902 51.1394C72.5732 50.1621 72.3647 49.1262 72.3647 48.0316V34.7015H77.7007V48.0316C77.7007 48.3965 77.7658 48.7418 77.8961 49.0675C78.0395 49.3803 78.2284 49.6604 78.463 49.908C78.7105 50.1426 78.9907 50.3315 79.3034 50.4748C79.6292 50.6051 79.9745 50.6703 80.3393 50.6703C80.7042 50.6703 81.0495 50.6051 81.3753 50.4748C81.701 50.3315 81.9877 50.1426 82.2353 49.908C82.4828 49.6604 82.6718 49.3803 82.8021 49.0675C82.9454 48.7418 83.0171 48.3965 83.0171 48.0316V34.7015H88.3335V48.0316C88.3335 48.3965 88.4052 48.7418 88.5485 49.0675C88.6918 49.3803 88.8808 49.6604 89.1153 49.908C89.3629 50.1426 89.643 50.3315 89.9558 50.4748C90.2815 50.6051 90.6268 50.6703 90.9917 50.6703C91.3565 50.6703 91.7019 50.6051 92.0276 50.4748C92.3534 50.3315 92.6335 50.1426 92.8681 49.908C93.1157 49.6604 93.3111 49.3803 93.4544 49.0675C93.5978 48.7418 93.6694 48.3965 93.6694 48.0316V34.7015H98.9858V48.0316Z" fill="#053218"/>
<path id="Vector_4" d="M60.1959 50.4748C60.4044 50.54 60.6129 50.5856 60.8214 50.6117C61.0298 50.6247 61.2383 50.6312 61.4468 50.6312C61.968 50.6312 62.4697 50.5595 62.9518 50.4162C63.4339 50.2729 63.8835 50.0709 64.3005 49.8103C64.7305 49.5367 65.1084 49.2109 65.4341 48.833C65.7729 48.4421 66.0465 48.0121 66.255 47.543L70.1641 51.4717C69.669 52.1753 69.0957 52.8073 68.4441 53.3676C67.8056 53.9279 67.1085 54.4035 66.3528 54.7944C65.61 55.1853 64.8217 55.4785 63.9877 55.674C63.1668 55.8825 62.3198 55.9867 61.4468 55.9867C59.9744 55.9867 58.5866 55.7131 57.2836 55.1658C55.9936 54.6185 54.8599 53.8562 53.8827 52.8789C52.9184 51.9017 52.1561 50.742 51.5958 49.3998C51.0355 48.0447 50.7554 46.5592 50.7554 44.9434C50.7554 43.2886 51.0355 41.777 51.5958 40.4089C52.1561 39.0407 52.9184 37.8744 53.8827 36.9102C54.8599 35.9459 55.9936 35.1967 57.2836 34.6625C58.5866 34.1282 59.9744 33.8611 61.4468 33.8611C62.3198 33.8611 63.1733 33.9653 64.0073 34.1738C64.8412 34.3823 65.6296 34.682 66.3723 35.0729C67.1281 35.4638 67.8317 35.9459 68.4832 36.5193C69.1347 37.0796 69.7081 37.7116 70.2032 38.4152L60.1959 50.4748ZM62.9323 39.4707C62.6847 39.3795 62.4371 39.3208 62.1895 39.2948C61.955 39.2687 61.7074 39.2557 61.4468 39.2557C60.7171 39.2557 60.0265 39.3925 59.375 39.6661C58.7365 39.9267 58.1762 40.3046 57.6941 40.7998C57.225 41.2949 56.8536 41.8943 56.58 42.598C56.3063 43.2886 56.1695 44.0704 56.1695 44.9434C56.1695 45.1389 56.176 45.3604 56.189 45.608C56.2151 45.8556 56.2477 46.1097 56.2868 46.3703C56.3389 46.6178 56.3975 46.8589 56.4627 47.0935C56.5278 47.328 56.6125 47.5365 56.7168 47.7189L62.9323 39.4707Z" fill="#053218"/>
<path id="Vector_5" d="M36.6712 55.5957H31.2961V26.3359H36.6712V44.787L44.6262 34.7015H50.7636L43.8249 43.4188L50.7636 55.5957H44.6262L40.3848 47.9925L36.6712 52.9179V55.5957Z" fill="#053218"/>
<path id="Vector_6" d="M28.4699 28.9747C28.4699 29.4698 28.3721 29.9324 28.1767 30.3624C27.9943 30.7924 27.7402 31.1703 27.4144 31.496C27.0886 31.8088 26.7042 32.0629 26.2612 32.2583C25.8312 32.4407 25.3686 32.532 24.8735 32.532C24.3783 32.532 23.9092 32.4407 23.4662 32.2583C23.0362 32.0629 22.6583 31.8088 22.3325 31.496C22.0198 31.1703 21.7657 30.7924 21.5703 30.3624C21.3878 29.9324 21.2966 29.4698 21.2966 28.9747C21.2966 28.4925 21.3878 28.0365 21.5703 27.6065C21.7657 27.1634 22.0198 26.7855 22.3325 26.4728C22.6583 26.1471 23.0362 25.893 23.4662 25.7105C23.9092 25.5151 24.3783 25.4174 24.8735 25.4174C25.3686 25.4174 25.8312 25.5151 26.2612 25.7105C26.7042 25.893 27.0886 26.1471 27.4144 26.4728C27.7402 26.7855 27.9943 27.1634 28.1767 27.6065C28.3721 28.0365 28.4699 28.4925 28.4699 28.9747ZM27.5512 55.5958H22.1762V34.6624H27.5512V55.5958Z" fill="#053218"/>
<path id="Vector_7" d="M5.33595 55.5957H0V26.3359H5.33595V35.581C5.97444 35.0989 6.63247 34.7601 7.31005 34.5646C7.98763 34.3561 8.67824 34.2519 9.38188 34.2519C10.6719 34.2519 11.8837 34.4995 13.0174 34.9946C14.151 35.4768 15.1348 36.1478 15.9687 37.0078C16.8157 37.8548 17.4803 38.8516 17.9624 39.9983C18.4576 41.132 18.7051 42.3438 18.7051 43.6338V55.5957H13.3301V43.6338H13.3692C13.3692 43.0865 13.2649 42.5718 13.0565 42.0897C12.848 41.5945 12.5613 41.1645 12.1964 40.7997C11.8316 40.4348 11.4081 40.1482 10.926 39.9397C10.4439 39.7312 9.92916 39.6269 9.38188 39.6269C8.82158 39.6269 8.29385 39.7312 7.79869 39.9397C7.30354 40.1482 6.87353 40.4348 6.50868 40.7997C6.14383 41.1645 5.85716 41.5945 5.64868 42.0897C5.44019 42.5718 5.33595 43.0865 5.33595 43.6338V55.5957Z" fill="#053218"/>
</g>
</g>
<g id="Group 52">
<g id="Group">
<path id="Vector_8" d="M86.7395 23.5704C87.0881 23.3184 87.3252 23.1715 87.5274 22.9965C92.4922 18.7345 97.4571 14.4655 102.415 10.1966C103.126 9.58771 103.098 9.50373 102.338 8.88788C101.829 8.46798 101.362 7.99209 100.755 7.43223C104.862 6.03256 108.83 4.67488 113 3.25422C111.333 7.31326 109.737 11.2043 108.07 15.2704C107.387 14.6055 106.731 13.9617 106.041 13.2828C103.517 15.6063 101.09 17.8667 98.6355 20.0852C94.375 23.9273 90.0935 27.7554 85.819 31.5765C85.1008 32.2203 84.7033 32.1433 84.3198 31.2545C81.426 24.4592 78.5531 17.6568 75.6732 10.8614C75.5686 10.6095 75.4571 10.3575 75.0596 9.86765C74.9341 10.1126 74.8643 10.4065 74.6761 10.6025C68.233 17.3559 61.755 24.0813 55.3468 30.8626C54.5518 31.7024 53.7848 31.9894 52.6691 31.9264C50.877 31.8284 49.078 31.8984 47 31.8984C56.9645 21.023 67.0754 10.6445 77.2561 0C80.4637 7.9711 83.5737 15.7113 86.7395 23.5704Z" fill="#053218"/>
<path id="Vector_9" d="M73.6708 10.6483C74.5359 10.4671 75.2476 10.4198 75.9484 10.8532C76.2221 11.0187 77.0215 11.0266 76.9996 10.9635C76.682 10.6562 75.4556 9.63173 75.0505 9.26922C74.722 9.00917 74.7658 8.9146 74.4592 9.08797C74.1526 9.24558 73.2547 9.68689 73.0357 9.82086C72.8386 9.90754 73.5175 10.4277 73.5942 10.5065L73.6708 10.6404V10.6483Z" fill="#053218"/>
<path id="Vector_10" d="M95.9928 7.96488C95.9786 10.793 93.6945 13.0345 90.8537 12.9996C88.1128 12.9647 86 10.8279 86 8.09756C86 5.32533 88.2841 3 91.0178 3C93.8301 3 96.0071 5.1717 96 7.96488H95.9928Z" fill="#053218"/>
<path id="Vector_11" d="M88.5185 22.4408C87.8597 22.5939 87.3094 22.6168 86.7925 22.1729C86.5923 22.0045 85.9837 21.9662 86.0003 22.0274C86.2255 22.3336 87.1176 23.3669 87.4095 23.7267C87.6513 23.987 87.6096 24.0788 87.8514 23.9257C88.0932 23.7803 88.802 23.3823 88.9687 23.2521C89.1271 23.1756 88.6352 22.6474 88.5768 22.5709L88.5185 22.4408Z" fill="#053218"/>
</g>
</g>
</g>
</g>
</svg>
