<svg width="110" height="71" viewBox="0 0 110 71" fill="none" xmlns="http://www.w3.org/2000/svg">
<path d="M108.647 27.9061C108.096 28.0919 107.605 28.5535 106.862 28.3474C107.425 27.4067 108.374 27.1077 109.329 26.6925C108.438 25.9812 107.457 25.8999 106.493 25.8883C103.79 25.8535 101.229 26.5619 98.7296 27.517C96.0702 28.5332 93.5734 29.9122 90.9459 30.9981C88.2633 32.1071 85.4994 32.6994 82.6107 32.0665C78.0438 31.0648 73.8835 29.0442 70.1005 26.3877C66.9563 24.1812 63.5624 23.2667 59.8114 23.1592C56.3739 23.0605 52.9597 23.3538 49.5396 23.5802C46.198 23.8038 42.8476 24.0709 39.5175 23.4786C37.2878 23.0838 35.0523 22.6396 33.2871 21.0399C31.8587 19.7479 30.1458 18.8421 28.6826 17.5995C27.8377 16.8824 27.0161 16.1333 26.1219 15.4888C25.1928 14.8211 24.5164 13.9849 24.0054 12.9804C23.2709 11.5317 22.1909 10.2717 21.6509 8.7126C21.5957 8.55583 21.4709 8.33228 21.2763 8.37873C21.0673 8.42518 21.1428 8.65744 21.1138 8.83454C20.9715 9.65907 20.8089 10.4923 19.8508 11.131C20.6638 8.69809 18.7708 7.95776 17.5776 6.69484C17.4615 7.16517 17.5573 7.59195 17.2176 7.86485C16.8227 7.5484 16.756 7.11871 16.6573 6.71226C16.544 6.24773 16.4424 5.82386 15.9895 5.51902C13.8701 4.09061 11.8117 2.5722 9.61684 1.25703C8.94328 0.853472 8.23779 0.493468 7.5323 0.147979C7.22455 -0.00299046 6.84423 -0.0871851 6.54809 0.139269C6.22003 0.38895 6.36519 0.746051 6.45519 1.08283C6.99229 3.11802 7.63101 5.12127 8.27554 7.12452C8.61812 8.19292 9.00716 9.24681 9.47748 10.3152C8.25521 10.4342 7.12584 10.5068 6.00809 10.6578C4.20516 10.9017 2.51256 10.3413 0.793827 9.99004C0.506404 9.93198 0.274143 9.90294 0.0912376 10.1555C-0.109088 10.4313 0.0593017 10.6491 0.224788 10.8639C1.19157 12.1152 2.30933 13.2417 3.18902 14.5627C3.42128 14.9082 3.74645 15.1927 4.02806 15.5033C4.38807 15.9011 4.67839 15.9679 5.09356 15.4917C5.64518 14.8588 6.23164 14.2259 7.14617 13.7933C6.75132 14.6004 6.1997 15.1056 5.79034 15.7124C5.45356 16.2117 4.83807 16.6182 4.80904 17.2076C4.76839 18.1018 4.47516 18.964 4.57097 19.8727C4.71033 21.1879 4.39968 22.4305 3.83935 23.6238C3.15128 25.0783 2.34998 26.4661 1.48771 27.8219C1.06383 28.4896 0.6806 29.1777 0.372854 29.9064C0.216078 30.278 0.364144 30.3709 0.712536 30.4435C1.37158 30.58 1.94062 30.2345 2.7245 30.1416C2.27449 30.5016 1.93481 30.7513 1.62126 31.0271C1.02028 31.5555 1.09577 31.9997 1.87965 32.1681C2.97708 32.4032 4.10935 32.4816 5.20679 32.7197C6.35648 32.9694 7.31165 32.5832 8.29005 32.0752C10.3369 31.0184 12.2095 29.7061 14.0501 28.3358C14.4508 28.0367 14.8834 27.3922 15.313 27.5925C15.8966 27.8654 15.9169 28.6522 15.9605 29.2822C15.9982 29.8309 16.004 30.3884 15.9605 30.9371C15.8966 31.8023 15.7718 32.6616 15.6905 33.5239C15.6063 34.3978 15.5685 35.2717 15.9372 36.2065C16.4627 35.4081 16.5731 34.4994 17.235 33.8491C17.3453 34.8652 17.0463 35.7623 16.6892 36.5955C16.2943 37.5159 16.7502 38.0907 17.264 38.9211C17.3482 37.8352 17.4673 36.9614 17.9376 36.1862C18.2686 37.2023 18.2831 38.2243 18.196 39.2491C18.1147 40.2159 18.4166 40.7588 19.2557 41.1624C20.205 41.6211 21.1602 42.0653 22.0893 42.5588C24.2667 43.7143 25.9709 45.3402 26.63 47.7731C28.0322 52.9554 28.4387 58.2481 28.1339 63.5988C28.1193 63.8572 28.0322 64.1127 27.9655 64.3653C27.5416 65.9562 27.2135 67.5705 26.839 69.1702C26.6445 70.0005 27.2222 69.8698 27.6142 69.9656C27.8958 70.0353 27.9684 69.7015 28.1193 69.536C28.7668 68.816 29.2661 67.9247 30.349 67.6053C30.1807 68.6505 29.3445 69.1818 28.8626 69.9598C29.8323 70.1224 30.6394 70.1021 31.1068 69.0569C31.3303 68.5576 31.7542 68.1337 32.3668 68.0756C32.5149 68.7724 31.9662 69.2398 31.7949 69.8437C32.3958 69.8437 32.9504 69.8031 33.4991 69.8524C34.1697 69.9134 34.4252 69.6143 34.5501 68.9902C35.0233 66.6153 35.2381 64.1998 35.4327 61.7988C35.8159 57.0403 36.2223 52.2993 37.6188 47.7005C37.7959 47.1141 38.0311 46.9544 38.6233 46.8905C40.1592 46.725 41.7443 46.8789 43.2105 46.2228C44.7841 45.5202 46.4505 45.1486 48.1199 44.7479C49.9896 44.3008 51.3019 44.7479 52.5126 46.2895C54.6 48.946 57.3465 50.7548 60.4849 52.067C63.5101 53.3329 66.7676 54.0122 69.607 55.7629C70.4954 56.3116 71.1021 56.9329 71.4157 57.9229C72.5422 61.4649 72.6612 65.0504 71.9528 68.6795C71.7757 69.5911 72.0892 69.8873 72.998 69.6753C73.326 69.5998 73.4248 69.3066 73.6135 69.0976C74.1128 68.5518 74.5077 67.855 75.3903 67.7998C75.3903 68.6679 74.6035 69.0366 74.3161 69.7015C75.4919 69.9221 75.4861 69.9163 76.177 69.0772C76.5196 68.6621 76.839 68.1976 77.4951 68.1366C77.4777 68.8769 76.8041 69.2427 76.5516 69.9047C77.3529 69.954 78.0584 69.9744 78.7609 70.0469C79.1877 70.0905 79.3648 69.9308 79.481 69.5273C79.719 68.7027 79.5274 67.8695 79.6058 67.0392C79.9861 62.9891 78.8713 59.2613 76.8913 55.7774C76.0435 54.288 75.2683 52.7725 74.5483 51.2193C73.9357 49.8983 73.0967 48.7892 71.7873 47.9821C69.8537 46.7889 68.4979 45.0324 67.8011 42.8434C67.4731 41.8185 67.3047 40.7443 67.0144 39.7049C66.875 39.2085 67.0608 39.1591 67.4644 39.223C68.1524 39.3304 68.7708 39.583 69.3689 39.943C71.7641 41.383 74.2028 42.7301 76.8796 43.604C80.9877 44.9424 85.1772 44.954 89.3985 44.3879C94.3834 43.7202 99.0286 42.1292 103.154 39.1882C104.295 38.3752 105.401 37.5188 106.275 36.4126C106.583 36.0236 106.914 35.6288 106.949 35.0539C105.494 35.8465 104.083 36.5665 102.298 36.5723C102.745 36.2152 103.053 35.8581 103.444 35.6752C105.413 34.7607 107.001 33.3468 108.609 31.9329C109.585 31.0764 110.041 30.0922 109.997 28.8177C109.957 27.6041 109.814 27.5083 108.647 27.8974V27.9061ZM8.40038 21.9137C8.71102 20.0992 9.39329 19.4866 11.7072 19.0598C10.694 20.285 9.63426 21.1734 8.40038 21.9137Z" fill="#2F653F"/>
<path d="M19.2966 41.9724C19.2617 43.6447 18.8901 45.1457 18.3733 46.606C16.5965 51.6548 14.6484 56.6281 12.1139 61.3575C10.7755 63.8543 9.80288 66.5224 8.59512 69.0801C8.49351 69.295 8.49932 69.4924 8.71416 69.6347C8.98416 69.8147 9.07997 69.5882 9.20191 69.4169C9.62578 68.8072 10.1048 68.2469 10.7348 67.8405C10.9555 67.6982 11.2632 67.524 11.4606 67.7069C11.7016 67.9276 11.5506 68.2556 11.3735 68.4879C10.999 68.9785 10.6013 69.4518 10.1919 69.9598C11.1239 70.1486 11.8787 70.1398 12.3781 69.2021C12.619 68.7521 13.0894 68.4618 13.6439 68.5314C13.7629 69.1208 13.3391 69.5127 13.1503 70.0092C13.4145 70.0092 13.6236 70.0034 13.8326 70.0092C14.7936 70.0353 15.4846 69.7566 15.8997 68.7463C16.6023 67.0333 17.4385 65.3756 18.2514 63.7091C20.5333 59.0291 23.0998 54.4913 25.3034 49.7676C25.8289 48.6441 25.5589 47.6947 25.0566 46.7076C23.8402 44.3124 21.4624 43.3485 19.2936 41.9695L19.2966 41.9724Z" fill="#17482F"/>
<path d="M51.656 52.9322C51.2408 51.2715 51.4295 49.6834 52.2163 48.1766C52.376 47.8689 52.3238 47.7324 52.1176 47.5089C51.1566 46.4637 50.0011 46.0108 48.5698 46.1879C47.333 46.3418 46.1282 46.6118 44.9408 46.9718C43.8288 47.3086 42.7169 47.6569 41.5352 47.6018C41.1084 47.5815 41.0794 47.7644 41.1346 48.1273C41.3959 49.8692 41.8749 51.5154 42.9665 52.9438C43.9594 54.2415 44.9204 55.5625 45.9075 56.8661C46.584 57.7603 46.6798 58.7822 46.1253 59.7316C45.1527 61.3923 44.1249 63.0152 42.8998 64.5075C41.8168 65.8285 40.6991 67.1262 39.9239 68.6679C39.7468 69.0192 39.4884 69.4082 39.9094 69.7276C40.3478 70.0585 40.6642 69.7711 40.9778 69.4314C41.4655 68.9059 41.9243 68.3137 42.7343 68.1743C42.6704 68.9001 42.0578 69.2746 41.7501 69.774C42.8069 70.3866 43.1581 69.1556 44.0204 68.9292C43.823 69.324 43.6836 69.5998 43.5211 69.9221C44.7433 70.0469 45.6724 69.6405 46.3024 68.6098C46.5346 68.2295 46.825 67.884 47.0572 67.5066C47.7047 66.4527 48.3898 65.451 49.2289 64.5191C50.7618 62.8178 52.3673 61.1716 53.6622 59.2642C53.9322 58.8664 53.9786 58.5674 53.7115 58.1348C52.7244 56.5264 52.1089 54.7612 51.6531 52.9351L51.656 52.9322Z" fill="#17482F"/>
</svg>
