<svg width="31" height="32" viewBox="0 0 31 32" fill="none" xmlns="http://www.w3.org/2000/svg">
<g id="ic:round-home">
<path id="Vector" d="M13.7796 25.559V19.3539C13.7796 18.8017 14.2273 18.3539 14.7796 18.3539H18.2144C18.7666 18.3539 19.2144 18.8017 19.2144 19.3539V25.559C19.2144 26.3515 19.8258 27 20.573 27H24.6491C25.3964 27 26.0078 26.3515 26.0078 25.559V16.4719C26.0078 15.9196 26.4555 15.4719 27.0078 15.4719H28.3175C28.9425 15.4719 29.2414 14.6506 28.7659 14.2183L17.4073 3.36746C16.891 2.87751 16.103 2.87751 15.5867 3.36746L4.22806 14.2183C3.76611 14.6506 4.05143 15.4719 4.67642 15.4719H5.98619C6.53847 15.4719 6.98619 15.9196 6.98619 16.4719V25.559C6.98619 26.3515 7.5976 27 8.34487 27H12.4209C13.1682 27 13.7796 26.3515 13.7796 25.559Z" stroke="#F6FCF0" stroke-width="2.5"/>
</g>
</svg>
