<svg width="41" height="41" viewBox="0 0 41 41" fill="none" xmlns="http://www.w3.org/2000/svg">
<g id="map.fill">
<path id="Vector" d="M16.8836 29.0154L23.0224 32.4388C23.3313 32.6061 23.5887 32.7348 23.9104 32.812V11.4354L17.9389 7.83192C17.5528 7.60027 17.1925 7.43296 16.8836 7.35574V29.0154ZM6.9353 30.74C6.9353 31.8596 7.64314 32.4774 8.67271 32.4774C9.04593 32.4774 9.43202 32.3616 9.86959 32.1299L14.9917 29.3501V7.49731C14.7086 7.61314 14.374 7.7547 14.0265 7.96062L8.2094 11.2681C7.33426 11.7572 6.9353 12.4521 6.9353 13.4302V30.74ZM25.7894 32.7477C25.9438 32.709 26.0983 32.6447 26.2399 32.5417L32.7519 28.861C33.6528 28.3591 34.0646 27.677 34.0646 26.6989V9.47924C34.0646 8.3081 33.3439 7.72896 32.25 7.72896C31.851 7.72896 31.4263 7.84479 30.9759 8.08932L25.7894 10.9721V32.7477Z" fill="#F6FCF0"/>
</g>
</svg>
