<svg width="41" height="42" viewBox="0 0 41 42" fill="none" xmlns="http://www.w3.org/2000/svg">
<g id="map">
<path id="Vector" d="M8.7371 33.2695C9.1618 33.2695 9.54789 33.1245 10.0627 32.8213L16.3173 29.3672L23.1383 33.2827C23.6788 33.5859 24.2451 33.731 24.7985 33.731C25.339 33.731 25.8667 33.5991 26.3428 33.3091L32.7391 29.6177C33.6271 29.1035 34.0132 28.3784 34.0132 27.3765V9.6709C34.0132 8.55029 33.3568 7.87793 32.2758 7.87793C31.8511 7.87793 31.465 8.04932 30.9373 8.33936L24.451 12.0308L17.7073 7.86475C17.2182 7.57471 16.6906 7.42969 16.15 7.42969C15.6224 7.42969 15.0947 7.56152 14.6314 7.83838L8.27379 11.543C7.38578 12.0571 6.98682 12.7559 6.98682 13.7578V31.4897C6.98682 32.6104 7.64317 33.2695 8.7371 33.2695ZM15.1591 27.0073L9.86963 29.9868C9.77954 30.0264 9.70232 30.0659 9.63797 30.0659C9.48354 30.0659 9.40632 29.9473 9.40632 29.7627V14.4434C9.40632 14.0742 9.53502 13.8369 9.86963 13.6392L14.7344 10.752C14.8759 10.6597 15.0046 10.5938 15.1591 10.5146V27.0073ZM17.6043 27.0732V10.8311C17.733 10.897 17.8746 10.9761 18.0033 11.0552L23.3957 14.3906V30.3955C23.2284 30.3032 23.0611 30.2109 22.8809 30.1055L17.6043 27.0732ZM25.8538 30.5801V14.1401L31.1432 11.187C31.2076 11.1475 31.2848 11.1211 31.3492 11.1211C31.5036 11.1211 31.6066 11.2397 31.6066 11.4111V26.6514C31.6066 27.0337 31.4779 27.271 31.1304 27.4688L26.4458 30.2505C26.2528 30.3691 26.0468 30.4878 25.8538 30.5801Z" fill="#F6FCF0"/>
</g>
</svg>
