<svg xmlns="http://www.w3.org/2000/svg" width="72" height="72" viewBox="0 0 72 72" fill="none">
  <circle cx="35.75" cy="36.2498" r="33" fill="#C4E426" stroke="#053218" stroke-width="5"/>
  <path d="M33.9231 53.0003C33.7998 53.0004 33.6777 52.9757 33.5641 52.9278C33.4505 52.8799 33.3477 52.8098 33.2616 52.7215C33.1756 52.6332 33.1081 52.5285 33.0632 52.4137C33.0182 52.2989 32.9967 52.1762 33 52.053V41.4691C33 41.3466 32.9513 41.2292 32.8648 41.1427C32.7782 41.0561 32.6608 41.0075 32.5384 41.0075H21.9464C21.7522 41.0098 21.5621 40.952 21.4021 40.842C21.2421 40.732 21.1201 40.5752 21.0527 40.3931C20.976 40.1759 20.9832 39.9379 21.073 39.7258C21.1628 39.5137 21.3286 39.3428 21.5379 39.2467L43.6924 29.0839C43.8635 29.0055 44.0546 28.9813 44.2399 29.0145C44.4252 29.0478 44.5959 29.1369 44.7292 29.2699C44.8624 29.4029 44.9517 29.5735 44.9853 29.7588C45.0188 29.9441 44.9948 30.1352 44.9166 30.3064L34.7625 52.4609C34.689 52.6218 34.5708 52.7582 34.422 52.8538C34.2731 52.9494 34.1 53.0003 33.9231 53.0003Z" fill="#053218"/>
</svg>