<svg width="110" height="63" viewBox="0 0 110 63" fill="none" xmlns="http://www.w3.org/2000/svg">
<path d="M109.996 38.1805C110.026 37.7371 109.873 37.3267 109.739 36.9163C108.885 34.3489 107.006 32.5844 104.814 31.2513C101.83 29.4359 98.5794 28.1088 95.338 26.8116C91.6922 25.3527 87.8816 24.3551 84.2148 22.9411C82.7768 22.3869 81.8871 21.3623 80.9284 20.3048C81.1801 20.1041 81.4347 20.1611 81.6714 20.1311C81.9949 20.0922 82.4563 20.2839 82.5491 19.7836C82.642 19.2923 82.1866 19.1455 81.8571 19.0047C80.8985 18.6033 79.9189 18.2468 78.8673 17.8423C79.4515 17.8064 79.9398 17.7914 80.4401 17.9442C80.7187 18.0311 81.1261 18.2168 81.2879 17.7794C81.4197 17.4259 81.0992 17.2642 80.8415 17.0994C80.4761 16.8687 80.1196 16.6171 79.7541 16.3864C76.2161 14.1636 72.4415 12.5488 68.2834 11.8958C65.8089 11.5063 63.3044 11.5543 60.8209 11.3116C57.4477 10.9821 54.1075 10.4278 50.7642 9.9006C48.104 9.48119 45.4827 8.7682 42.7236 8.75922C43.1011 7.59387 43.188 6.45249 42.6457 5.34706C42.5199 5.09242 42.4001 4.78086 42.0346 4.7569C41.6392 4.73293 41.5583 5.06546 41.4265 5.3201C41.1718 5.8174 40.8842 6.28473 40.4079 6.79401C40.4768 5.26917 40.0424 3.99897 39.5092 2.76173C39.3714 2.44418 39.2935 1.97684 38.7932 1.98883C38.3558 2.00081 38.2779 2.40823 38.1102 2.70481C38.0023 2.89354 37.9064 3.08527 37.8016 3.274C36.7111 5.19427 35.2163 6.77004 33.5986 8.25593C33.8891 7.55792 34.4194 6.90785 34.3325 6.14992C34.0779 3.94804 33.2091 1.98283 31.7592 0.293231C31.5764 0.0805326 31.3098 -0.102211 31.0432 0.0655509C30.8065 0.215338 30.9024 0.508922 30.9803 0.739595C31.4206 2.05473 31.3368 3.37286 30.8215 4.62508C29.5034 7.84252 27.2715 10.2181 24.0661 11.6321C23.5568 11.8568 22.703 11.8568 22.5532 12.1983C22.3615 12.6387 22.715 13.3188 22.8408 13.8939C22.8498 13.9329 22.9097 13.9598 22.9786 14.0287C23.0475 13.9089 23.1014 13.7951 23.1703 13.6932C23.389 13.3727 23.434 12.8364 23.9462 12.8544C24.4346 12.8694 24.6832 13.2948 24.8839 13.6782C25.6209 15.0862 25.9025 16.5092 24.818 17.8813C24.5274 18.2468 24.5574 18.5194 24.7701 18.8968C25.0697 19.4331 25.1595 20.0292 25.0307 20.8261C24.7102 19.8375 24.4735 19.0077 23.9882 18.2857C23.8833 18.1299 23.8444 17.9831 23.9882 17.8483C25.2284 16.689 24.827 15.4188 24.2278 14.1456C24.123 13.9209 24.0571 13.5734 23.7306 13.5794C23.449 13.5884 23.416 13.9179 23.2962 14.1186C23.0325 14.559 22.7839 15.0054 22.2926 15.3619C22.2836 14.8286 22.4604 14.4362 22.3435 13.9748C21.6875 11.4015 20.5131 9.04981 19.2639 6.7311C18.8025 5.87731 18.2813 5.05647 17.6971 4.26859C17.2507 3.66644 16.9871 3.86117 16.6546 4.31352C15.9356 5.29613 15.2646 6.3027 14.7463 7.41113C13.7427 9.56208 13.3143 11.8538 12.9488 14.1725C12.835 14.8885 13.0507 15.8502 12.5474 16.2756C11.6547 17.0335 10.6002 17.6955 9.27006 17.4828C6.52596 17.0425 3.75189 17.0395 0.986813 16.9556C0.663272 16.9466 0.145007 16.8148 0.0221811 17.1623C-0.0976489 17.4948 0.294794 17.8064 0.55842 18.061C2.13119 19.5619 3.71894 21.0508 5.27972 22.5666C5.66917 22.9441 5.91782 22.8992 6.29229 22.5397C6.80756 22.0454 7.39772 21.632 7.95493 21.1826C7.61341 22.0753 6.83452 22.6146 6.43908 23.4384C5.73508 24.9003 6.11254 26.3593 6.51697 27.7763C6.93937 29.2532 6.73865 30.4305 5.66318 31.6288C4.43792 32.9918 3.21565 34.3879 2.24503 35.9636C1.92149 36.4879 1.65187 37.0541 1.7028 37.824C2.31992 37.4435 2.79924 37.1559 3.27257 36.8594C3.8178 36.5149 4.27016 36.6377 4.55475 37.1829C4.83635 37.7221 4.69256 38.2015 4.13235 38.4801C3.7459 38.6718 3.32649 38.7946 2.6854 39.0373C3.62008 39.3339 4.18328 39.927 4.9442 39.9959C5.85491 40.0768 6.62482 40.2985 7.32882 40.9576C8.19459 41.7724 8.95551 41.7065 9.85124 40.9576C10.2677 40.6071 10.6751 40.2476 11.0705 39.8761C13.9614 37.1529 17.083 34.7144 20.2735 32.3568C20.4023 32.2609 20.5401 32.0841 20.8456 32.2339C20.0158 33.0188 19.219 33.7737 18.3232 34.6215C19.1261 34.5856 19.7941 34.5077 20.4562 34.5347C21.2231 34.5646 21.5137 35.011 21.3879 35.712C21.3399 35.9876 20.9685 36.3501 21.3669 36.5538C21.7474 36.7485 22.0799 36.4729 22.3375 36.1554C22.4124 36.0655 22.4634 35.8977 22.703 35.9786C22.8858 36.6107 22.6761 37.2099 22.4424 37.812C22.3795 37.9708 22.1728 38.1386 22.4064 38.3123C22.6581 38.4951 22.8019 38.2794 22.9517 38.1326C23.5119 37.5813 23.7276 36.8384 24.0241 36.1494C24.7042 34.5736 26.9989 33.7498 28.4069 34.7354C30.0756 35.9037 32.1181 39.9382 32.1175 40.2386C32.1169 40.5389 29.6621 37.0062 28.2302 36.1344C27.3374 35.5922 26.4058 35.4843 25.4052 35.733C24.6023 35.9307 24.2219 36.389 24.2338 37.2129C24.2428 37.842 24.147 38.4561 23.9492 39.0522C22.5113 43.4081 20.5341 47.5212 18.2933 51.5056C16.4868 54.717 15.2046 58.1532 13.7727 61.5264C13.6439 61.829 13.4521 62.1795 13.8146 62.4011C14.2161 62.6468 14.3479 62.1914 14.5516 61.9847C15.1597 61.3616 15.7858 60.7774 16.7924 60.5977C16.4299 61.3616 15.9057 61.9068 15.7199 62.6288C15.9296 62.7696 16.1573 62.8415 16.4059 62.8415C17.5114 62.8385 18.0416 61.781 18.9763 61.3946C19.0332 61.826 18.6258 62.2214 18.9763 62.5899C19.4826 63.1171 21.1422 62.8685 21.5287 62.2244C22.9097 59.9267 23.8384 57.4162 24.9588 54.9986C26.9779 50.6398 29.3086 46.4398 31.5225 42.1798C31.849 41.5507 32.1741 41.0959 32.1111 40.2182C32.5156 41.027 32.7028 41.5777 32.8886 42.2997C33.961 46.4278 34.1318 50.6458 34.015 54.8788C33.985 55.9753 33.7843 57.0567 33.4727 58.1382C33.1552 59.2376 33.0084 60.391 32.595 61.4785C32.4662 61.814 32.3673 62.3143 32.8766 62.5449C33.3409 62.7546 33.7543 62.8325 34.1827 62.3592C34.6561 61.8349 35.1234 61.2717 35.8334 60.8164C35.6357 61.3556 35.417 61.7361 35.1174 62.0746C35.0096 62.1974 34.7999 62.3173 34.9706 62.5509C35.1533 62.7996 36.5464 62.8086 36.7561 62.5689C37.1755 62.0896 37.6069 61.6252 38.1102 61.071C38.1102 61.3706 38.1641 61.5593 38.1012 61.6882C37.6997 62.509 38.197 62.6168 38.8261 62.6468C39.2545 62.6678 39.6829 62.6618 40.1023 62.8265C40.4828 62.9763 40.7344 62.7726 40.8093 62.3892C41.0041 61.4066 41.1958 60.415 40.9921 59.4144C40.9352 59.1388 40.9501 58.9021 40.9951 58.6295C41.4145 56.152 41.8099 53.6715 42.2024 51.191C42.6697 48.2402 43.3198 45.3314 44.3413 42.5213C44.602 41.8054 44.9644 41.1403 43.862 40.8168C44.2485 40.5142 44.602 40.3314 44.8206 40.0409C45.0903 39.6844 44.4971 39.4207 44.584 39.0223C45.6355 39.1032 46.6391 38.9204 47.6516 38.7197C50.6234 38.1266 53.5143 37.1709 56.522 36.7216C57.1212 36.6317 57.4987 36.6916 57.972 37.0571C59.4669 38.2194 60.5963 39.7353 61.9833 40.9995C63.7118 42.5693 65.4194 44.16 67.3547 45.4811C67.5494 45.616 67.7082 45.8916 67.9748 45.7208C68.3313 45.4931 67.9658 45.2565 67.9269 45.0228C67.9149 44.9509 67.8969 44.879 67.8819 44.8071C68.4122 45.1636 68.8346 45.607 69.248 46.0593C69.3678 46.1911 69.5056 46.269 69.6764 46.2211C69.8801 46.1642 69.8531 45.9904 69.8412 45.8256C69.8322 45.6819 69.7243 45.5111 69.952 45.3823C72.0281 46.1312 74.0951 46.979 76.2281 47.6021C77.3485 47.9317 77.9207 48.5368 78.3521 49.5524C79.2448 51.6494 79.6612 53.8423 79.7122 56.0861C79.7571 58.0333 80.0896 59.9806 79.814 61.9368C79.7481 62.4041 79.9249 62.6738 80.53 62.7307C81.3478 62.8086 81.5036 62.0806 81.9889 61.7331C82.1777 62.0716 81.7792 62.6228 82.3724 62.6887C82.8757 62.7457 83.4029 62.7906 83.7145 62.1974C83.8792 61.8859 84.1489 61.6282 84.4604 61.2328C84.4574 62.7127 84.6911 62.9314 86.0122 62.8595C86.2249 62.8475 86.4346 62.7307 86.6413 62.7427C87.1386 62.7696 87.2405 62.4131 87.2674 62.0776C87.3903 60.5588 87.4442 59.0309 87.2405 57.5181C86.851 54.5912 86.0452 51.7512 85.1045 48.9682C84.5173 47.2337 83.6725 45.595 81.8601 44.6992C81.0123 44.2798 80.3383 43.5698 79.7181 42.8359C79.0411 42.033 79.0351 42.045 79.9308 41.5717C80.0836 41.4908 80.3143 41.4848 80.3532 41.2032C79.4995 40.67 78.5318 40.2536 77.7559 39.3728C78.1094 39.3728 78.3461 39.3818 78.5798 39.3728C78.8134 39.3608 79.125 39.4417 79.2298 39.1601C79.3557 38.8246 78.9902 38.7287 78.8224 38.54C78.7685 38.4801 78.6906 38.4441 78.6277 38.3932C75.8416 36.1404 73.8045 33.5281 74.4576 29.6216C75.0328 29.8373 75.2425 30.4245 75.56 30.9008C77.0939 33.2165 79.137 34.8642 81.7882 35.724C80.9254 34.975 79.8979 34.4148 79.2268 33.4502C80.9224 34.268 82.5581 35.1698 84.2148 36.0266C86.3777 37.147 88.6125 37.797 89.5352 37.6053C88.292 36.7305 87.1236 35.8168 86.6204 34.2111C86.7731 34.292 86.839 34.313 86.89 34.3549C89.1518 36.1224 91.5603 37.5634 94.4273 38.1865C97.2253 38.7916 99.7238 40.1337 102.054 41.7604C103.933 43.0726 105.422 44.8311 107.066 46.4098C107.333 46.6675 107.567 46.961 107.971 47.0719C108.211 47.1378 108.378 47.2247 108.459 46.9281C108.768 45.8197 109.334 44.7951 109.349 43.5848C109.379 41.4399 109.208 39.3309 108.579 37.2578C108.933 37.6173 109.229 38.0007 109.535 38.3752C109.619 38.4801 109.727 38.5819 109.882 38.522C110.056 38.4561 109.981 38.2943 109.99 38.1745L109.996 38.1805ZM9.84824 30.5263C10.1029 27.7972 10.3186 27.6954 13.2634 27.6474C12.2628 28.8008 11.0406 29.5198 9.84824 30.5263Z" fill="#2F653F"/>
<path d="M59.0503 46.0713C59.7063 46.2481 59.955 46.275 59.9939 46.1432C60.0868 45.8257 59.8501 45.595 59.7333 45.3314C59.0952 43.8844 58.6518 42.4405 58.9993 40.7958C59.3109 39.3219 58.0767 37.9948 56.5428 37.8809C54.8113 37.7521 53.1876 38.2734 51.5459 38.6718C50.2218 38.9924 48.9875 39.6694 47.5526 39.5556C46.9355 39.5046 47.0493 40.0738 47.1422 40.3914C47.5376 41.7544 47.8761 43.1295 48.5112 44.4266C49.4818 46.4158 50.7371 48.2163 52.0402 49.9748C52.7532 50.9364 52.6783 51.7063 52.0971 52.5841C51.0995 54.0939 50.081 55.5918 49.0894 57.1077C48.1098 58.6025 46.7228 59.7978 45.9139 61.4156C45.3537 62.539 45.5604 62.6858 46.7138 62.8385C47.0103 62.8775 47.2171 62.6887 47.4148 62.491C47.7024 62.2064 47.984 61.9039 48.3944 61.7301C48.4573 62.0506 48.0199 62.3562 48.3764 62.515C49.0954 62.8325 49.6646 62.4491 50.1589 61.8589C50.2637 62.2454 50.108 62.6887 50.6412 62.7157C51.6238 62.7696 52.5345 62.8385 53.1846 61.781C54.988 58.8452 57.154 56.161 59.2929 53.4678C59.919 52.6799 59.97 51.943 59.5326 51.0832C59.1371 50.3043 58.9514 49.4595 58.8795 48.5518C59.1431 48.7016 59.3648 48.8693 59.6135 48.9532C59.7633 49.0042 59.925 49.2528 60.1078 49.0401C60.2815 48.8394 60.0628 48.6956 59.9879 48.5368C59.6045 47.7519 59.275 46.9461 59.0443 46.0713H59.0503Z" fill="#17482F"/>
</svg>
